<svg xmlns="http://www.w3.org/2000/svg" version="1.1" xmlns:xlink="http://www.w3.org/1999/xlink" width="512" height="512" x="0" y="0" viewBox="0 0 467.851 467.851" style="enable-background:new 0 0 512 512" xml:space="preserve"><g><path fill="#ff8cde" d="M283.781 416.752H176.39v30.898c0 8.306 24.04 15.039 53.696 15.039 29.655 0 53.696-6.733 53.696-15.039l-.001-30.898z" opacity="1" data-original="#ff8cde"></path><ellipse cx="265.348" cy="445.222" fill="#fd4cc8" rx="3.894" ry="3.892" opacity="1" data-original="#fd4cc8"></ellipse><path fill="#fff" d="M230.063 441.389c-4.417 0-8.67-.194-12.665-.551a2.709 2.709 0 0 0-.489 5.393c4.136.385 8.556.596 13.154.596 4.541 0 8.909-.205 13-.582a2.708 2.708 0 0 0-.485-5.394c-3.95.348-8.152.538-12.515.538z" opacity=".5"></path><path fill="#fd4cc8" d="M283.781 384.389H176.39v30.898c0 8.306 24.04 15.039 53.696 15.039 29.655 0 53.696-6.733 53.696-15.039l-.001-30.898z"></path><ellipse cx="265.348" cy="412.859" fill="#ff8cde" rx="3.894" ry="3.892"></ellipse><path fill="#fff" d="M230.063 409.026c-4.417 0-8.67-.194-12.665-.551a2.709 2.709 0 0 0-.489 5.393c4.136.385 8.556.596 13.154.596 4.541 0 8.909-.205 13-.582a2.708 2.708 0 0 0-.485-5.394c-3.95.349-8.152.538-12.515.538z" opacity=".5"></path><path fill="#ff8cde" d="M283.781 352.491H176.39v30.898c0 8.306 24.04 15.039 53.696 15.039 29.655 0 53.696-6.733 53.696-15.039l-.001-30.898z"></path><ellipse cx="265.348" cy="380.961" fill="#fd4cc8" rx="3.894" ry="3.892"></ellipse><path fill="#fff" d="M230.063 379.128c-4.417 0-8.67-.194-12.665-.551a2.709 2.709 0 0 0-.489 5.393c4.136.385 8.556.596 13.154.596 4.541 0 8.909-.205 13-.582a2.708 2.708 0 0 0-.485-5.394c-3.95.349-8.152.538-12.515.538z" opacity=".5"></path><ellipse cx="230.085" cy="352.491" fill="#fd4cc8" rx="53.696" ry="16.407"></ellipse><path fill="#6e4acf" d="M94.788 457.204H45.419l10.186-29.002h28.997z"></path><path fill="#915efd" d="M130.281 435.43H9.925a8 8 0 0 1-8-8v-85.826a8 8 0 0 1 8-8h120.356a8 8 0 0 1 8 8v85.826a8 8 0 0 1-8 8z"></path><path fill="#fff" d="M128.281 349.604a6 6 0 0 0-6-6H69.029a3 3 0 1 0 0 6h50.252a3 3 0 0 1 3 3v38.883a3 3 0 1 0 6 0z" opacity=".5"></path><g fill="#fff"><path d="M117.43 420.015H20.509a2 2 0 0 1 0-4h96.921a2 2 0 0 1 0 4z"></path><circle cx="69.794" cy="378.713" r="3.766"></circle><circle cx="49.422" cy="378.713" r="3.766"></circle><circle cx="90.166" cy="378.713" r="3.766"></circle></g><path fill="#a1e032" d="M457.925 389.912h-130.72a8 8 0 0 1-8-8v-45.405a8 8 0 0 1 8-8h130.72a8 8 0 0 1 8 8v45.405a8 8 0 0 1-8 8z"></path><path fill="#80b240" d="M336.205 380.912a8 8 0 0 1-8-8v-44.405h-1a8 8 0 0 0-8 8v45.405a8 8 0 0 0 8 8h130.72a8 8 0 0 0 8-8v-1z"></path><path fill="#fff" d="M338.836 346.244h18.983v25.929h-18.983zM374.904 346.244h18.983v25.929h-18.983zM446.294 351.022H412.68a2 2 0 0 1 0-4h33.614a2 2 0 0 1 0 4zM445.86 371.397h-33.614a2 2 0 0 1 0-4h33.614a2 2 0 0 1 0 4z"></path><path fill="#a1e032" d="M457.925 467.059h-130.72a8 8 0 0 1-8-8v-45.405a8 8 0 0 1 8-8h130.72a8 8 0 0 1 8 8v45.405a8 8 0 0 1-8 8z"></path><path fill="#80b240" d="M336.205 458.059a8 8 0 0 1-8-8v-44.405h-1a8 8 0 0 0-8 8v45.405a8 8 0 0 0 8 8h130.72a8 8 0 0 0 8-8v-1z"></path><path fill="#fff" d="M338.836 423.391h18.983v25.929h-18.983zM374.904 423.391h18.983v25.929h-18.983zM446.294 428.168H412.68a2 2 0 0 1 0-4h33.614a2 2 0 0 1 0 4zM445.86 448.543h-33.614a2 2 0 0 1 0-4h33.614a2 2 0 0 1 0 4z"></path><path fill="#f5f5f5" d="M336.102 389.912h112.927v15.734H336.102z"></path><path fill="#e3d7fe" d="M391.144 245.79H232.085v-16.298a2 2 0 0 0-4 0v16.298H69.027a2 2 0 0 0-2 2v40.586a2 2 0 0 0 4 0V249.79h157.059v38.375a2 2 0 0 0 4 0V249.79h157.059v38.563a2 2 0 0 0 4 0V247.79a2 2 0 0 0-2.001-2z"></path><ellipse cx="230.085" cy="288.353" fill="#ffd629" rx="11.088" ry="11"></ellipse><ellipse cx="69.027" cy="288.54" fill="#00d5fe" rx="11.088" ry="11"></ellipse><ellipse cx="391.144" cy="288.54" fill="#fc09b2" rx="11.088" ry="11"></ellipse><path fill="#ffd629" d="M300.664 107.846V83.744h-7.18c-5.681 0-10.73-3.483-12.895-8.732l-.071-.171c-2.188-5.256-1.103-11.3 2.925-15.326l5.076-5.073L271.465 37.4l-5.076 5.073c-4.028 4.026-10.076 5.11-15.336 2.923l-.171-.071c-5.253-2.163-8.738-7.209-8.738-12.887v-7.176h-24.117v7.176c0 5.678-3.485 10.723-8.738 12.887l-.171.071c-5.26 2.187-11.308 1.102-15.336-2.923l-5.076-5.073-17.054 17.042 5.076 5.073c4.028 4.026 5.113 10.07 2.925 15.326l-.071.171c-2.165 5.25-7.214 8.732-12.895 8.732h-7.18v24.102h7.18c5.681 0 10.73 3.483 12.895 8.732l.071.171c2.188 5.256 1.103 11.3-2.925 15.326l-5.076 5.073 17.054 17.042 5.076-5.073c4.028-4.026 10.076-5.11 15.336-2.923l.171.071c5.253 2.163 8.738 7.209 8.738 12.887v7.176h24.117v-7.176c0-5.678 3.485-10.723 8.738-12.887l.171-.071c5.26-2.187 11.308-1.102 15.336 2.923l5.076 5.073 17.054-17.042-5.076-5.073c-4.028-4.026-5.113-10.07-2.925-15.326l.071-.171c2.165-5.25 7.214-8.732 12.895-8.732z"></path><path fill="#00d5fe" d="M258.594 95.795c0-11.551-6.882-21.488-16.768-25.961v25.819l-11.741 8.611-11.741-8.611V69.834c-9.886 4.473-16.768 14.41-16.768 25.961 0 11.277 6.557 21.022 16.068 25.64v73.925c0 6.866 5.57 12.433 12.441 12.433s12.441-5.566 12.441-12.433v-73.925c9.511-4.618 16.068-14.363 16.068-25.64z"></path><path fill="#11a7e9" d="M226.645 192.359v-69.297c0-2.623-1.242-5.132-3.421-6.593-7.627-5.113-12.647-13.807-12.647-23.675 0-7.559 2.96-14.416 7.768-19.513v-3.447c-9.886 4.473-16.768 14.41-16.768 25.961 0 11.277 6.557 21.022 16.068 25.64v73.513c0 6.776 5.245 12.611 12.017 12.838 3.281.11 6.282-1.06 8.563-3.036-6.468-.445-11.58-5.815-11.58-12.391z"></path><path fill="#915efd" d="M313.457 139.148c-1.032.23-2.907-.723-1.789-2.892 6.47-12.552 9.481-26.256 9.481-40.462 0-50.179-40.851-91.003-91.063-91.003s-91.063 40.824-91.063 91.003c0 14.206 3.19 27.819 9.481 40.462a2.001 2.001 0 0 1-3.581 1.783c-6.569-13.201-9.9-27.415-9.9-42.244 0-52.385 42.646-95.003 95.063-95.003s95.063 42.618 95.063 95.003c0 14.83-3.331 29.043-9.9 42.244a2 2 0 0 1-1.792 1.109z"></path><g fill="#915efd"><path d="m94.937 162.359 12.328-12.327a2 2 0 1 0-2.828-2.828l-12.328 12.327-16.264-16.264 12.328-12.327a2 2 0 1 0-2.828-2.828l-12.328 12.327-16.264-16.264 12.328-12.328a2 2 0 1 0-2.828-2.828l-12.328 12.328-12.327-12.327a2 2 0 1 0-2.828 2.828l12.328 12.328-16.264 16.264-12.328-12.327a2 2 0 1 0-2.828 2.828l12.328 12.327-16.264 16.264-12.328-12.329a2 2 0 1 0-2.828 2.828l12.328 12.327L.586 174.686a2 2 0 0 0 0 2.828c.943.781 1.885.781 2.828 0l12.328-12.327 16.264 16.264-12.328 12.327a2 2 0 0 0 0 2.828c.943.781 1.885.781 2.828 0l12.328-12.327 16.264 16.264L38.77 212.87a2 2 0 0 0 0 2.828c.943.781 1.885.781 2.828 0l12.328-12.328 12.328 12.328c.943.781 1.885.781 2.828 0a2 2 0 0 0 0-2.828l-12.328-12.328 16.264-16.264 12.328 12.327c.943.781 1.885.781 2.828 0a2 2 0 0 0 0-2.828L75.845 181.45l16.264-16.264 12.328 12.327c.943.781 1.885.781 2.828 0a2 2 0 0 0 0-2.828zm-41.012-35.356 16.264 16.264-16.264 16.264-16.264-16.264zM18.57 162.359l16.264-16.264 16.264 16.264-16.264 16.264zm35.355 35.355L37.662 181.45l16.264-16.264L70.19 181.45zm19.092-19.092-16.264-16.264 16.264-16.264 16.264 16.264zM454.937 162.359l12.328-12.327a2 2 0 1 0-2.828-2.828l-12.328 12.327-16.264-16.264 12.328-12.327a2 2 0 1 0-2.828-2.828l-12.328 12.327-16.264-16.264 12.328-12.328a2 2 0 1 0-2.828-2.828l-12.328 12.328-12.328-12.328a2 2 0 1 0-2.828 2.828l12.328 12.328-16.264 16.264-12.328-12.327a2 2 0 1 0-2.828 2.828l12.328 12.327-16.264 16.264-12.328-12.327a2 2 0 1 0-2.828 2.828l12.328 12.327-12.328 12.327a2 2 0 0 0 0 2.828c.943.781 1.885.781 2.828 0l12.328-12.327 16.264 16.264-12.328 12.327a2 2 0 0 0 0 2.828c.943.781 1.885.781 2.828 0l12.328-12.327 16.264 16.264-12.327 12.327a2 2 0 0 0 0 2.828c.943.781 1.885.781 2.828 0l12.328-12.328 12.328 12.328c.943.781 1.885.781 2.828 0a2 2 0 0 0 0-2.828l-12.328-12.328 16.264-16.264 12.328 12.327c.943.781 1.885.781 2.828 0a2 2 0 0 0 0-2.828l-12.328-12.327 16.264-16.264 12.328 12.327c.943.781 1.885.781 2.828 0a2 2 0 0 0 0-2.828zm-41.012-35.356 16.264 16.264-16.264 16.264-16.264-16.264zm-35.355 35.356 16.264-16.264 16.264 16.264-16.264 16.264zm35.355 35.355-16.264-16.264 16.264-16.264 16.264 16.264zm19.092-19.092-16.264-16.264 16.264-16.264 16.264 16.264z"></path></g><path fill="#cc1dab" d="m58.898 76.913-3.827 6.102c-.815 1.299-2.728 1.236-3.455-.114l-3.167-5.877a2 2 0 0 0-.886-.85l-6.454-3.137c-1.603-.779-1.463-3.107.221-3.689l6.007-2.076a1.999 1.999 0 0 0 1.163-1.053l3.052-6.62c.693-1.504 2.81-1.562 3.584-.098l3.685 6.968a2 2 0 0 0 1.094.948l5.516 1.974c1.64.587 1.798 2.845.256 3.654l-6.025 3.161a1.997 1.997 0 0 0-.764.707z"></path><path fill="#11a7e9" d="m120.006 35.982-3.827 6.102c-.815 1.299-2.728 1.236-3.455-.114l-3.167-5.877a2 2 0 0 0-.886-.85l-6.454-3.137c-1.603-.779-1.463-3.107.221-3.689l6.007-2.076a1.999 1.999 0 0 0 1.163-1.053l3.052-6.62c.693-1.504 2.81-1.562 3.584-.098l3.685 6.968a2 2 0 0 0 1.094.948l5.516 1.974c1.64.587 1.798 2.845.256 3.654l-6.025 3.161a1.99 1.99 0 0 0-.764.707z"></path><path fill="#cc1dab" d="m408.952 76.913 3.827 6.102c.815 1.299 2.728 1.236 3.455-.114l3.167-5.877a2 2 0 0 1 .886-.85l6.454-3.137c1.603-.779 1.463-3.107-.221-3.689l-6.007-2.076a1.999 1.999 0 0 1-1.163-1.053l-3.052-6.62c-.693-1.504-2.81-1.562-3.584-.098l-3.685 6.968a2 2 0 0 1-1.094.948l-5.516 1.974c-1.64.587-1.798 2.845-.256 3.654l6.025 3.161c.312.163.576.408.764.707z"></path><path fill="#11a7e9" d="m347.845 35.982 3.827 6.102c.815 1.299 2.728 1.236 3.455-.114l3.167-5.877a2 2 0 0 1 .886-.85l6.454-3.137c1.603-.779 1.463-3.107-.221-3.689l-6.007-2.076a1.999 1.999 0 0 1-1.163-1.053l-3.052-6.62c-.693-1.504-2.81-1.562-3.584-.098l-3.685 6.968a2 2 0 0 1-1.094.948l-5.516 1.974c-1.64.587-1.798 2.845-.256 3.654l6.025 3.161c.312.163.576.407.764.707z"></path><g fill="#00d5fe"><circle cx="158.425" cy="186.259" r="4"></circle><circle cx="133.425" cy="186.259" r="4"></circle><circle cx="184.425" cy="186.259" r="4"></circle><circle cx="158.425" cy="209.259" r="4"></circle><circle cx="133.425" cy="209.259" r="4"></circle><circle cx="184.425" cy="209.259" r="4"></circle><circle cx="301.425" cy="186.259" r="4"></circle><circle cx="276.425" cy="186.259" r="4"></circle><circle cx="327.425" cy="186.259" r="4"></circle><circle cx="301.425" cy="209.259" r="4"></circle><circle cx="276.425" cy="209.259" r="4"></circle><circle cx="327.425" cy="209.259" r="4"></circle></g></g></svg>