<svg xmlns="http://www.w3.org/2000/svg" version="1.1" xmlns:xlink="http://www.w3.org/1999/xlink" width="512" height="512" x="0" y="0" viewBox="0 0 510 510" style="enable-background:new 0 0 512 512" xml:space="preserve" class=""><g><path fill="#e6f2ff" d="M240 285v30H60v90l15 15 15-15v-60h150v60l7.5 15 7.5-15 15-75-15-45-7.5-15z" opacity="1" data-original="#e6f2ff"></path><path fill="#ccddff" d="M270 345h150v60l15 15 15-15v-90H270v-30l-7.5-15-7.5 15v120l7.5 15 7.5-15v-60z" opacity="1" data-original="#ccddff"></path><path fill="#66ccff" d="M195 0v38.106a222.768 222.768 0 0 0-50.939 21.103 342306.06 342306.06 0 0 0-26.947-26.947l-84.853 84.853 26.947 26.947A222.818 222.818 0 0 0 38.106 195H0v90h105v-30c0-82.84 67.155-150 150-150l15-52.5L255 0h-60z" opacity="1" data-original="#66ccff" class=""></path><path fill="#4596e6" d="M405 255v30h105v-90h-38.105a222.813 222.813 0 0 0-21.103-50.939c9.424-9.425 17.523-17.522 26.946-26.947l-84.853-84.853a342306.06 342306.06 0 0 0-26.947 26.947A222.844 222.844 0 0 0 315 38.106V0h-60v105c82.841 0 150 67.154 150 150z" opacity="1" data-original="#4596e6"></path><path fill="#66ccff" d="M165 255v30h90l15-60-15-60c-49.704 0-90 40.293-90 90z" opacity="1" data-original="#66ccff" class=""></path><path fill="#4596e6" d="M345 255c0-49.704-40.293-90-90-90v120h90v-30z" opacity="1" data-original="#4596e6"></path><path fill="#ff637b" d="M180 405v75l37.5 15 37.5-15 15-37.5-15-37.5h-75z" opacity="1" data-original="#ff637b"></path><path fill="#e63950" d="M330 405h-75v75l37.5 15 37.5-15v-75zM180 480v30h75l15-15-15-15h-75z" opacity="1" data-original="#e63950"></path><path fill="#cd0000" d="M330 480h-75v30h75v-30z" opacity="1" data-original="#cd0000"></path><path fill="#8bf2cf" d="M0 405v75l37.5 15L75 480l15-37.5L75 405H0z" opacity="1" data-original="#8bf2cf"></path><path fill="#57d9d4" d="M150 405H75v75l37.5 15 37.5-15v-75zM0 480v30h75l15-15-15-15H0z" opacity="1" data-original="#57d9d4"></path><path fill="#26bfbf" d="M150 480H75v30h75v-30z" opacity="1" data-original="#26bfbf"></path><path fill="#ffda2d" d="M360 405v75l37.5 15 37.5-15 15-37.5-15-37.5h-75z" opacity="1" data-original="#ffda2d"></path><path fill="#fdbf00" d="M510 405h-75v75l37.5 15 37.5-15v-75zM360 480v30h75l15-15-15-15h-75z" opacity="1" data-original="#fdbf00"></path><path fill="#ff9100" d="M510 480h-75v30h75v-30z" opacity="1" data-original="#ff9100"></path></g></svg>